<mxfile host="app.diagrams.net" agent="Mozilla/5.0 (Windows NT 10.0; Win64; x64) AppleWebKit/537.36 (KHTML, like Gecko) Chrome/134.0.0.0 Safari/537.36" version="26.1.0">
  <diagram name="第 1 页" id="ffc2uMm-pqOqGtAR-4LL">
    <mxGraphModel dx="1247" dy="1098" grid="0" gridSize="10" guides="1" tooltips="1" connect="1" arrows="1" fold="1" page="1" pageScale="1" pageWidth="827" pageHeight="1169" math="0" shadow="0">
      <root>
        <mxCell id="0" />
        <mxCell id="1" parent="0" />
        <mxCell id="jSLXS6b7PZD3vh32cBy3-1" value="" style="rounded=0;whiteSpace=wrap;html=1;dashed=1;dashPattern=8 8;fillColor=none;strokeWidth=3;strokeColor=#7EA6E0;" vertex="1" parent="1">
          <mxGeometry x="1030" y="590" width="860" height="480" as="geometry" />
        </mxCell>
        <mxCell id="jSLXS6b7PZD3vh32cBy3-2" value="" style="shape=flexArrow;endArrow=classic;html=1;rounded=0;strokeColor=#B5739D;fillColor=#B5739D;endWidth=34;endSize=7.62;" edge="1" parent="1">
          <mxGeometry width="50" height="50" relative="1" as="geometry">
            <mxPoint x="1460.5" y="540" as="sourcePoint" />
            <mxPoint x="1460" y="610" as="targetPoint" />
          </mxGeometry>
        </mxCell>
        <mxCell id="jSLXS6b7PZD3vh32cBy3-3" value="" style="endArrow=none;html=1;rounded=0;strokeWidth=10;strokeColor=#B5739D;" edge="1" parent="1">
          <mxGeometry width="50" height="50" relative="1" as="geometry">
            <mxPoint x="1040" y="540" as="sourcePoint" />
            <mxPoint x="1880" y="540" as="targetPoint" />
          </mxGeometry>
        </mxCell>
        <mxCell id="jSLXS6b7PZD3vh32cBy3-4" value="&lt;font face=&quot;Times New Roman&quot;&gt;&lt;span style=&quot;font-size: 30px;&quot;&gt;联邦&lt;/span&gt;&lt;/font&gt;&lt;div&gt;&lt;font face=&quot;Times New Roman&quot;&gt;&lt;span style=&quot;font-size: 30px;&quot;&gt;学习&lt;/span&gt;&lt;/font&gt;&lt;/div&gt;" style="ellipse;whiteSpace=wrap;html=1;aspect=fixed;fillColor=#e1d5e7;strokeColor=#9673a6;" vertex="1" parent="1">
          <mxGeometry x="1120" y="450" width="100" height="100" as="geometry" />
        </mxCell>
        <mxCell id="jSLXS6b7PZD3vh32cBy3-5" value="&lt;font face=&quot;Times New Roman&quot;&gt;&lt;span style=&quot;font-size: 30px;&quot;&gt;队形&lt;/span&gt;&lt;/font&gt;&lt;div&gt;&lt;font face=&quot;Times New Roman&quot;&gt;&lt;span style=&quot;font-size: 30px;&quot;&gt;控制&lt;/span&gt;&lt;/font&gt;&lt;span style=&quot;caret-color: rgba(0, 0, 0, 0); color: rgba(0, 0, 0, 0); font-family: monospace; font-size: 0px; text-align: start; white-space: nowrap;&quot;&gt;%3CmxGraphModel%3E%3Croot%3E%3CmxCell%20id%3D%220%22%2F%3E%3CmxCell%20id%3D%221%22%20parent%3D%220%22%2F%3E%3CmxCell%20id%3D%222%22%20value%3D%22%26lt%3Bfont%20face%3D%26quot%3BTimes%20New%20Roman%26quot%3B%26gt%3B%26lt%3Bspan%20style%3D%26quot%3Bfont-size%3A%2030px%3B%26quot%3B%26gt%3B%E8%81%94%E9%82%A6%26lt%3B%2Fspan%26gt%3B%26lt%3B%2Ffont%26gt%3B%26lt%3Bdiv%26gt%3B%26lt%3Bfont%20face%3D%26quot%3BTimes%20New%20Roman%26quot%3B%26gt%3B%26lt%3Bspan%20style%3D%26quot%3Bfont-size%3A%2030px%3B%26quot%3B%26gt%3B%E5%AD%A6%E4%B9%A0%26lt%3B%2Fspan%26gt%3B%26lt%3B%2Ffont%26gt%3B%26lt%3B%2Fdiv%26gt%3B%22%20style%3D%22ellipse%3BwhiteSpace%3Dwrap%3Bhtml%3D1%3Baspect%3Dfixed%3BfillColor%3D%23e1d5e7%3BstrokeColor%3D%239673a6%3B%22%20vertex%3D%221%22%20parent%3D%221%22%3E%3CmxGeometry%20x%3D%221316%22%20y%3D%22470%22%20width%3D%22100%22%20height%3D%22100%22%20as%3D%22geometry%22%2F%3E%3C%2FmxCell%3E%3C%2Froot%3E%3C%2FmxGraphModel%3E&lt;/span&gt;&lt;/div&gt;" style="ellipse;whiteSpace=wrap;html=1;aspect=fixed;fillColor=#e1d5e7;strokeColor=#9673a6;" vertex="1" parent="1">
          <mxGeometry x="1310" y="450" width="100" height="100" as="geometry" />
        </mxCell>
        <mxCell id="jSLXS6b7PZD3vh32cBy3-6" value="&lt;font face=&quot;Times New Roman&quot;&gt;&lt;span style=&quot;font-size: 30px;&quot;&gt;物联网&lt;/span&gt;&lt;/font&gt;" style="ellipse;whiteSpace=wrap;html=1;aspect=fixed;fillColor=#e1d5e7;strokeColor=#9673a6;" vertex="1" parent="1">
          <mxGeometry x="1500" y="450" width="100" height="100" as="geometry" />
        </mxCell>
        <mxCell id="jSLXS6b7PZD3vh32cBy3-7" value="&lt;font face=&quot;Times New Roman&quot;&gt;&lt;span style=&quot;font-size: 30px;&quot;&gt;波束&lt;/span&gt;&lt;/font&gt;&lt;div&gt;&lt;font face=&quot;Times New Roman&quot;&gt;&lt;span style=&quot;font-size: 30px;&quot;&gt;形成&lt;/span&gt;&lt;/font&gt;&lt;/div&gt;" style="ellipse;whiteSpace=wrap;html=1;aspect=fixed;fillColor=#e1d5e7;strokeColor=#9673a6;" vertex="1" parent="1">
          <mxGeometry x="1690" y="450" width="100" height="100" as="geometry" />
        </mxCell>
        <mxCell id="jSLXS6b7PZD3vh32cBy3-8" value="" style="rounded=1;whiteSpace=wrap;html=1;fillColor=#d5e8d4;strokeColor=#82b366;" vertex="1" parent="1">
          <mxGeometry x="1043.5" y="610" width="835" height="130" as="geometry" />
        </mxCell>
        <mxCell id="jSLXS6b7PZD3vh32cBy3-9" value="&lt;div&gt;&lt;font style=&quot;font-size: 30px;&quot; face=&quot;Times New Roman&quot;&gt;&lt;br&gt;&lt;/font&gt;&lt;/div&gt;&lt;font style=&quot;font-size: 30px;&quot; face=&quot;Times New Roman&quot;&gt;&lt;div&gt;&lt;font style=&quot;font-size: 30px;&quot; face=&quot;Times New Roman&quot;&gt;&lt;br&gt;&lt;/font&gt;&lt;/div&gt;&lt;br&gt;&lt;/font&gt;" style="rounded=1;whiteSpace=wrap;html=1;fillColor=#e1d5e7;strokeColor=#9673a6;" vertex="1" parent="1">
          <mxGeometry x="1043.5" y="830" width="376.5" height="220" as="geometry" />
        </mxCell>
        <mxCell id="jSLXS6b7PZD3vh32cBy3-10" value="&lt;font size=&quot;5&quot; face=&quot;Times New Roman&quot;&gt;基于强化学习框架&lt;/font&gt;" style="rounded=1;whiteSpace=wrap;html=1;fillColor=#ffe6cc;strokeColor=#d79b00;" vertex="1" parent="1">
          <mxGeometry x="1120" y="680" width="260" height="47.5" as="geometry" />
        </mxCell>
        <mxCell id="jSLXS6b7PZD3vh32cBy3-11" value="" style="rounded=1;whiteSpace=wrap;html=1;fillColor=#e1d5e7;strokeColor=#9673a6;" vertex="1" parent="1">
          <mxGeometry x="1500" y="830" width="378.5" height="220" as="geometry" />
        </mxCell>
        <mxCell id="jSLXS6b7PZD3vh32cBy3-12" value="" style="rounded=1;whiteSpace=wrap;html=1;fillColor=#dae8fc;strokeColor=#6c8ebf;" vertex="1" parent="1">
          <mxGeometry x="1180" y="1130" width="580" height="90" as="geometry" />
        </mxCell>
        <mxCell id="jSLXS6b7PZD3vh32cBy3-13" value="" style="rounded=0;whiteSpace=wrap;html=1;dashed=1;dashPattern=8 8;fillColor=none;strokeWidth=2;strokeColor=#B5739D;" vertex="1" parent="1">
          <mxGeometry x="1048.5" y="850" width="830" height="90" as="geometry" />
        </mxCell>
        <mxCell id="jSLXS6b7PZD3vh32cBy3-14" value="" style="rounded=1;whiteSpace=wrap;html=1;fillColor=#d5e8d4;strokeColor=#82b366;" vertex="1" parent="1">
          <mxGeometry x="1052.5" y="1300" width="847.5" height="130" as="geometry" />
        </mxCell>
        <mxCell id="jSLXS6b7PZD3vh32cBy3-15" value="" style="endArrow=classic;html=1;rounded=0;strokeWidth=5;strokeColor=#B5739D;" edge="1" parent="1">
          <mxGeometry width="50" height="50" relative="1" as="geometry">
            <mxPoint x="960" y="1380" as="sourcePoint" />
            <mxPoint x="1110" y="500" as="targetPoint" />
            <Array as="points">
              <mxPoint x="960" y="500" />
            </Array>
          </mxGeometry>
        </mxCell>
        <mxCell id="jSLXS6b7PZD3vh32cBy3-16" value="" style="endArrow=none;html=1;rounded=0;strokeWidth=5;strokeColor=#B5739D;" edge="1" parent="1">
          <mxGeometry width="50" height="50" relative="1" as="geometry">
            <mxPoint x="960" y="1380" as="sourcePoint" />
            <mxPoint x="1050" y="1380" as="targetPoint" />
          </mxGeometry>
        </mxCell>
        <mxCell id="jSLXS6b7PZD3vh32cBy3-17" value="&lt;font style=&quot;font-size: 24px;&quot; face=&quot;Times New Roman&quot;&gt;当有节点发生错误时&lt;/font&gt;" style="text;html=1;align=center;verticalAlign=middle;whiteSpace=wrap;rounded=0;" vertex="1" parent="1">
          <mxGeometry x="1400" y="560" width="390" height="30" as="geometry" />
        </mxCell>
        <mxCell id="jSLXS6b7PZD3vh32cBy3-18" value="&lt;font size=&quot;5&quot; face=&quot;Times New Roman&quot;&gt;基于自适应方法&lt;/font&gt;" style="rounded=1;whiteSpace=wrap;html=1;fillColor=#dae8fc;strokeColor=#6c8ebf;" vertex="1" parent="1">
          <mxGeometry x="1520" y="680" width="260" height="47.5" as="geometry" />
        </mxCell>
        <mxCell id="jSLXS6b7PZD3vh32cBy3-19" value="&lt;font style=&quot;font-size: 30px;&quot; face=&quot;Times New Roman&quot;&gt;研究内容一、理想环境下的容错一致性&lt;/font&gt;" style="text;html=1;align=center;verticalAlign=middle;whiteSpace=wrap;rounded=0;" vertex="1" parent="1">
          <mxGeometry x="1188" y="630" width="542" height="30" as="geometry" />
        </mxCell>
        <mxCell id="jSLXS6b7PZD3vh32cBy3-20" value="&lt;font style=&quot;font-size: 24px;&quot; face=&quot;Times New Roman&quot;&gt;隐私约&lt;/font&gt;&lt;span style=&quot;font-size: 24px; font-family: &amp;quot;Times New Roman&amp;quot;;&quot;&gt;束条件&lt;/span&gt;" style="rounded=1;whiteSpace=wrap;html=1;fillColor=#fff2cc;strokeColor=#d6b656;arcSize=11;" vertex="1" parent="1">
          <mxGeometry x="1052.5" y="870" width="147.5" height="50" as="geometry" />
        </mxCell>
        <mxCell id="jSLXS6b7PZD3vh32cBy3-21" value="&lt;font style=&quot;font-size: 24px;&quot; face=&quot;Times New Roman&quot;&gt;拓扑量化约束条件&lt;/font&gt;" style="rounded=1;whiteSpace=wrap;html=1;fillColor=#dae8fc;strokeColor=#6c8ebf;" vertex="1" parent="1">
          <mxGeometry x="1210" y="870" width="200" height="50" as="geometry" />
        </mxCell>
        <mxCell id="jSLXS6b7PZD3vh32cBy3-22" value="&lt;font style=&quot;font-size: 24px;&quot; face=&quot;Times New Roman&quot;&gt;未知测量偏差&lt;/font&gt;" style="rounded=1;whiteSpace=wrap;html=1;fillColor=#ffe6cc;strokeColor=#d79b00;" vertex="1" parent="1">
          <mxGeometry x="1514" y="870" width="166" height="50" as="geometry" />
        </mxCell>
        <mxCell id="jSLXS6b7PZD3vh32cBy3-23" value="&lt;font style=&quot;font-size: 24px;&quot; face=&quot;Times New Roman&quot;&gt;无组内通信约束&lt;/font&gt;" style="rounded=1;whiteSpace=wrap;html=1;fillColor=#dae8fc;strokeColor=#6c8ebf;" vertex="1" parent="1">
          <mxGeometry x="1690" y="870" width="176" height="50" as="geometry" />
        </mxCell>
        <mxCell id="jSLXS6b7PZD3vh32cBy3-24" value="&lt;font style=&quot;font-size: 30px;&quot; face=&quot;Times New Roman&quot;&gt;多智能车队形容错控制&lt;/font&gt;" style="rounded=1;whiteSpace=wrap;html=1;fillColor=#ffe6cc;strokeColor=#d79b00;" vertex="1" parent="1">
          <mxGeometry x="1095" y="1367.5" width="310" height="50" as="geometry" />
        </mxCell>
        <mxCell id="jSLXS6b7PZD3vh32cBy3-25" value="&lt;font style=&quot;font-size: 30px;&quot; face=&quot;Times New Roman&quot;&gt;分布式容错机器学习&lt;/font&gt;" style="rounded=1;whiteSpace=wrap;html=1;fillColor=#dae8fc;strokeColor=#6c8ebf;" vertex="1" parent="1">
          <mxGeometry x="1530" y="1367.5" width="310" height="50" as="geometry" />
        </mxCell>
        <mxCell id="jSLXS6b7PZD3vh32cBy3-26" value="" style="shape=flexArrow;endArrow=classic;html=1;rounded=0;strokeColor=none;fillColor=#FFB570;endWidth=38;endSize=8.67;" edge="1" parent="1">
          <mxGeometry width="50" height="50" relative="1" as="geometry">
            <mxPoint x="1300" y="850" as="sourcePoint" />
            <mxPoint x="1300" y="740" as="targetPoint" />
          </mxGeometry>
        </mxCell>
        <mxCell id="jSLXS6b7PZD3vh32cBy3-27" value="" style="shape=flexArrow;endArrow=classic;html=1;rounded=0;strokeColor=none;fillColor=#FFB570;endWidth=38;endSize=8.67;" edge="1" parent="1">
          <mxGeometry width="50" height="50" relative="1" as="geometry">
            <mxPoint x="1640" y="850" as="sourcePoint" />
            <mxPoint x="1640" y="740" as="targetPoint" />
          </mxGeometry>
        </mxCell>
        <mxCell id="jSLXS6b7PZD3vh32cBy3-28" value="&lt;span style=&quot;font-family: &amp;quot;Times New Roman&amp;quot;; font-size: 30px;&quot;&gt;研究内容二、约束条件下的容错一致性&lt;/span&gt;" style="text;html=1;align=center;verticalAlign=middle;whiteSpace=wrap;rounded=0;" vertex="1" parent="1">
          <mxGeometry x="1076.75" y="970" width="310" height="30" as="geometry" />
        </mxCell>
        <mxCell id="jSLXS6b7PZD3vh32cBy3-29" value="&lt;font style=&quot;font-size: 30px;&quot; face=&quot;Times New Roman&quot;&gt;研究内容三、状态信息缺失下的容错一致性&lt;/font&gt;" style="text;html=1;align=center;verticalAlign=middle;whiteSpace=wrap;rounded=0;" vertex="1" parent="1">
          <mxGeometry x="1534.25" y="970" width="310" height="30" as="geometry" />
        </mxCell>
        <mxCell id="jSLXS6b7PZD3vh32cBy3-30" value="&lt;font style=&quot;font-size: 30px;&quot; face=&quot;Times New Roman&quot;&gt;基于自学习思想的容错一致性架构&lt;/font&gt;" style="text;html=1;align=center;verticalAlign=middle;whiteSpace=wrap;rounded=0;" vertex="1" parent="1">
          <mxGeometry x="1220" y="1160" width="510" height="30" as="geometry" />
        </mxCell>
        <mxCell id="jSLXS6b7PZD3vh32cBy3-31" value="研究内容四、容错一致性算法的实验平台验证多智能车队形容错控制" style="text;whiteSpace=wrap;fontFamily=Times New Roman;fontSize=28;" vertex="1" parent="1">
          <mxGeometry x="1052.5" y="1320" width="930" height="70" as="geometry" />
        </mxCell>
        <mxCell id="jSLXS6b7PZD3vh32cBy3-32" value="" style="shape=flexArrow;endArrow=classic;html=1;rounded=0;strokeColor=#B5739D;fillColor=#B5739D;endWidth=34;endSize=7.62;" edge="1" parent="1">
          <mxGeometry width="50" height="50" relative="1" as="geometry">
            <mxPoint x="1470" y="1070" as="sourcePoint" />
            <mxPoint x="1470" y="1130" as="targetPoint" />
          </mxGeometry>
        </mxCell>
        <mxCell id="jSLXS6b7PZD3vh32cBy3-33" value="" style="shape=flexArrow;endArrow=classic;html=1;rounded=0;strokeColor=#B5739D;fillColor=#B5739D;endWidth=34;endSize=7.62;entryX=0.493;entryY=-0.008;entryDx=0;entryDy=0;entryPerimeter=0;" edge="1" parent="1" target="jSLXS6b7PZD3vh32cBy3-14">
          <mxGeometry width="50" height="50" relative="1" as="geometry">
            <mxPoint x="1469.5" y="1222.5" as="sourcePoint" />
            <mxPoint x="1469.5" y="1282.5" as="targetPoint" />
          </mxGeometry>
        </mxCell>
        <mxCell id="jSLXS6b7PZD3vh32cBy3-34" value="归纳" style="text;whiteSpace=wrap;fontFamily=Times New Roman;fontSize=30;" vertex="1" parent="1">
          <mxGeometry x="1495" y="1070" width="100" height="40" as="geometry" />
        </mxCell>
        <mxCell id="jSLXS6b7PZD3vh32cBy3-35" value="验证" style="text;whiteSpace=wrap;fontFamily=Times New Roman;fontSize=30;" vertex="1" parent="1">
          <mxGeometry x="1495" y="1230" width="110" height="40" as="geometry" />
        </mxCell>
        <mxCell id="jSLXS6b7PZD3vh32cBy3-36" value="应用&#xa;" style="text;whiteSpace=wrap;fontFamily=Times New Roman;fontSize=30;" vertex="1" parent="1">
          <mxGeometry x="990" y="450" width="100" height="40" as="geometry" />
        </mxCell>
        <mxCell id="jSLXS6b7PZD3vh32cBy3-37" value="" style="rounded=0;whiteSpace=wrap;html=1;dashed=1;dashPattern=8 8;fillColor=none;strokeWidth=2;strokeColor=#301615;" vertex="1" parent="1">
          <mxGeometry x="1210" y="860" width="660" height="70" as="geometry" />
        </mxCell>
      </root>
    </mxGraphModel>
  </diagram>
</mxfile>
